# Blender v2.82 (sub 7) OBJ File: ''
# www.blender.org
o Cone
v 0.097982 -0.097982 1.492000
v 0.128020 -0.053028 1.492000
v 0.138568 0.000000 1.492000
v 0.128020 0.053028 1.492000
v 0.097983 0.097982 1.492000
v 0.053028 0.128020 1.492000
v 0.000000 0.138568 1.492000
v -0.053028 0.128020 1.492000
v -0.097983 0.097982 1.492000
v -0.128020 0.053028 1.492000
v -0.138568 -0.000000 1.492000
v -0.128020 -0.053028 1.492000
v -0.097982 -0.097982 1.492000
v -0.053028 -0.128020 1.492000
v -0.000000 -0.138568 1.492000
v 0.053028 -0.128020 1.492000
v 0.846577 0.000000 0.000000
v 0.924400 0.000000 0.130939
v 0.854034 -0.353753 0.130939
v 0.782135 -0.323971 0.000000
v 0.653650 -0.653650 0.130939
v 0.598620 -0.598620 0.000000
v 0.353753 -0.854034 0.130939
v 0.323971 -0.782135 0.000000
v -0.000000 -0.924400 0.130939
v -0.000000 -0.846577 0.000000
v -0.353753 -0.854034 0.130939
v -0.323971 -0.782135 0.000000
v -0.653650 -0.653650 0.130939
v -0.598620 -0.598620 0.000000
v -0.854034 -0.353753 0.130939
v -0.782135 -0.323971 0.000000
v -0.924400 -0.000000 0.130939
v -0.846577 -0.000000 0.000000
v -0.854035 0.353752 0.130939
v -0.782135 0.323971 0.000000
v -0.653650 0.653650 0.130939
v -0.598621 0.598620 0.000000
v -0.353753 0.854034 0.130939
v -0.323971 0.782135 0.000000
v 0.000000 0.924400 0.130939
v 0.000000 0.846577 0.000000
v 0.353753 0.854034 0.130939
v 0.323971 0.782135 0.000000
v 0.653650 0.653650 0.130939
v 0.598621 0.598620 0.000000
v 0.854035 0.353752 0.130939
v 0.782135 0.323971 0.000000
vn 0.8534 -0.1698 0.4928
vn 0.7235 -0.4834 0.4928
vn 0.4834 -0.7235 0.4928
vn -0.1698 -0.8534 0.4928
vn -0.4834 -0.7235 0.4928
vn -0.7235 -0.4834 0.4928
vn -0.4834 0.7235 0.4928
vn -0.8534 0.1698 0.4928
vn -0.8534 -0.1698 0.4928
vn -0.7235 0.4834 0.4928
vn -0.1698 0.8534 0.4928
vn 0.1698 0.8534 0.4928
vn 0.4834 0.7235 0.4928
vn 0.7235 0.4834 0.4928
vn 0.8534 0.1698 0.4928
vn 0.0000 0.0000 1.0000
vn 0.1698 -0.8534 0.4928
vn 0.8473 -0.1685 -0.5036
vn 0.7183 -0.4800 -0.5036
vn 0.4800 -0.7183 -0.5036
vn 0.1685 -0.8473 -0.5036
vn -0.1685 -0.8473 -0.5036
vn -0.4800 -0.7183 -0.5036
vn -0.7183 -0.4800 -0.5036
vn -0.8473 -0.1685 -0.5036
vn -0.8473 0.1685 -0.5036
vn -0.7183 0.4800 -0.5036
vn -0.4800 0.7183 -0.5036
vn -0.1685 0.8473 -0.5036
vn 0.1685 0.8473 -0.5036
vn 0.4800 0.7183 -0.5036
vn 0.7183 0.4800 -0.5036
vn 0.8473 0.1685 -0.5036
vn 0.0000 0.0000 -1.0000
s off
f 18//1 2//1 19//1
f 2//2 21//2 19//2
f 1//3 23//3 21//3
f 15//4 27//4 25//4
f 14//5 29//5 27//5
f 13//6 31//6 29//6
f 37//7 8//7 39//7
f 11//8 35//8 33//8
f 12//9 33//9 31//9
f 10//10 37//10 35//10
f 8//11 41//11 39//11
f 7//12 43//12 41//12
f 6//13 45//13 43//13
f 45//14 4//14 47//14
f 4//15 18//15 47//15
f 16//16 4//16 8//16
f 16//17 25//17 23//17
f 18//18 20//18 17//18
f 21//19 20//19 19//19
f 23//20 22//20 21//20
f 25//21 24//21 23//21
f 27//22 26//22 25//22
f 29//23 28//23 27//23
f 31//24 30//24 29//24
f 33//25 32//25 31//25
f 35//26 34//26 33//26
f 37//27 36//27 35//27
f 37//28 40//28 38//28
f 41//29 40//29 39//29
f 43//30 42//30 41//30
f 45//31 44//31 43//31
f 47//32 46//32 45//32
f 18//33 48//33 47//33
f 48//34 24//34 32//34
f 18//1 3//1 2//1
f 2//2 1//2 21//2
f 1//3 16//3 23//3
f 15//4 14//4 27//4
f 14//5 13//5 29//5
f 13//6 12//6 31//6
f 37//7 9//7 8//7
f 11//8 10//8 35//8
f 12//9 11//9 33//9
f 10//10 9//10 37//10
f 8//11 7//11 41//11
f 7//12 6//12 43//12
f 6//13 5//13 45//13
f 45//14 5//14 4//14
f 4//15 3//15 18//15
f 16//16 1//16 2//16
f 2//16 3//16 4//16
f 4//16 5//16 6//16
f 6//16 7//16 8//16
f 8//16 9//16 10//16
f 10//16 11//16 12//16
f 12//16 13//16 14//16
f 14//16 15//16 12//16
f 15//16 16//16 12//16
f 16//16 2//16 4//16
f 4//16 6//16 8//16
f 8//16 10//16 16//16
f 10//16 12//16 16//16
f 16//17 15//17 25//17
f 18//18 19//18 20//18
f 21//19 22//19 20//19
f 23//20 24//20 22//20
f 25//21 26//21 24//21
f 27//22 28//22 26//22
f 29//23 30//23 28//23
f 31//24 32//24 30//24
f 33//25 34//25 32//25
f 35//26 36//26 34//26
f 37//27 38//27 36//27
f 37//28 39//28 40//28
f 41//29 42//29 40//29
f 43//30 44//30 42//30
f 45//31 46//31 44//31
f 47//32 48//32 46//32
f 18//33 17//33 48//33
f 48//34 17//34 20//34
f 20//34 22//34 24//34
f 24//34 26//34 28//34
f 28//34 30//34 32//34
f 32//34 34//34 36//34
f 36//34 38//34 40//34
f 40//34 42//34 44//34
f 44//34 46//34 40//34
f 46//34 48//34 40//34
f 48//34 20//34 24//34
f 24//34 28//34 32//34
f 32//34 36//34 48//34
f 36//34 40//34 48//34
